<?xml version="1.0" encoding="utf-8" standalone="no"?>
<!DOCTYPE svg PUBLIC "-//W3C//DTD SVG 1.1//EN"
  "http://www.w3.org/Graphics/SVG/1.1/DTD/svg11.dtd">
<svg xmlns:xlink="http://www.w3.org/1999/xlink" width="113.385827pt" height="56.692913pt" viewBox="0 0 113.385827 56.692913" xmlns="http://www.w3.org/2000/svg" version="1.1">
 <metadata>
  <rdf:RDF xmlns:dc="http://purl.org/dc/elements/1.1/" xmlns:cc="http://creativecommons.org/ns#" xmlns:rdf="http://www.w3.org/1999/02/22-rdf-syntax-ns#">
   <cc:Work>
    <dc:type rdf:resource="http://purl.org/dc/dcmitype/StillImage"/>
    <dc:date>2026-03-05T15:19:34.897413</dc:date>
    <dc:format>image/svg+xml</dc:format>
    <dc:creator>
     <cc:Agent>
      <dc:title>Matplotlib v3.10.3, https://matplotlib.org/</dc:title>
     </cc:Agent>
    </dc:creator>
   </cc:Work>
  </rdf:RDF>
 </metadata>
 <defs>
  <style type="text/css">*{stroke-linejoin: round; stroke-linecap: butt}</style>
 </defs>
 <g id="figure_1">
  <g id="patch_1">
   <path d="M 0 56.692913 
L 113.385827 56.692913 
L 113.385827 0 
L 0 0 
L 0 56.692913 
z
" style="fill: none"/>
  </g>
  <g id="axes_1">
   <g id="patch_2">
    <path d="M 31.748031 44.220472 
L 112.251969 44.220472 
L 112.251969 15.874016 
L 31.748031 15.874016 
L 31.748031 44.220472 
z
" style="fill: none; opacity: 0"/>
   </g>
   <g id="line2d_1">
    <path d="M 45.343267 44.220472 
L 45.343267 15.874016 
" clip-path="url(#pfa80fc100b)" style="fill: none; stroke: #808080; stroke-linecap: square"/>
   </g>
   <g id="matplotlib.axis_1">
    <g id="text_1">
     <text style="font-size: 9px; font-family: 'FiraGO'; text-anchor: middle" x="72" y="54.970472" transform="rotate(-0 72 54.970472)">Pulse duration</text>
    </g>
   </g>
   <g id="matplotlib.axis_2">
    <g id="ytick_1">
     <g id="line2d_2">
      <defs>
       <path id="m01facdfb32" d="M 0 0 
L -3.5 0 
" style="stroke: #000000; stroke-width: 0.8"/>
      </defs>
      <g>
       <use xlink:href="#m01facdfb32" x="31.748031" y="42.37179" style="stroke: #000000; stroke-width: 0.8"/>
      </g>
     </g>
     <g id="text_2">
      <!-- $-1$ -->
      <g transform="translate(18.168031 44.99679)">
       <text>
        <tspan x="0" y="-0.3125" style="font-size: 7px; font-family: 'FiraGO'">−</tspan>
        <tspan x="3.5" y="-0.3125" style="font-size: 7px; font-family: 'FiraGO'">1</tspan>
       </text>
      </g>
     </g>
    </g>
    <g id="ytick_2">
     <g id="line2d_3">
      <g>
       <use xlink:href="#m01facdfb32" x="31.748031" y="30.047244" style="stroke: #000000; stroke-width: 0.8"/>
      </g>
     </g>
     <g id="text_3">
      <!-- $0$ -->
      <g transform="translate(20.828031 32.672244)">
       <text>
        <tspan x="0" y="-0.25" style="font-size: 7px; font-family: 'FiraGO'">0</tspan>
       </text>
      </g>
     </g>
    </g>
    <g id="ytick_3">
     <g id="line2d_4">
      <g>
       <use xlink:href="#m01facdfb32" x="31.748031" y="17.722698" style="stroke: #000000; stroke-width: 0.8"/>
      </g>
     </g>
     <g id="text_4">
      <!-- $1$ -->
      <g transform="translate(21.668031 20.347698)">
       <text>
        <tspan x="0" y="-0.3125" style="font-size: 7px; font-family: 'FiraGO'">1</tspan>
       </text>
      </g>
     </g>
    </g>
    <g id="text_5">
     <!-- $\langle Y\rangle_\mathrm{t}$ -->
     <g transform="translate(0.788031 32.400603)">
      <text>
       <tspan x="0" y="-0.578125" style="font-size: 9px; font-family: 'STIXGeneral'">⟨</tspan>
       <tspan x="8.495987" y="-0.578125" style="font-size: 9px; font-family: 'STIXGeneral'">⟩</tspan>
       <tspan x="3.599991" y="-0.578125" style="font-style: italic; font-size: 9px; font-family: 'FiraGO'">Y</tspan>
       <tspan x="12.179103" y="0.846875" style="font-size: 6.3px; font-family: 'FiraGO'">t</tspan>
      </text>
     </g>
    </g>
   </g>
   <g id="line2d_5">
    <path d="M 31.748031 30.047244 
L 112.251969 30.047244 
" clip-path="url(#pfa80fc100b)" style="fill: none; stroke: #000000; stroke-linecap: square"/>
   </g>
   <g id="line2d_6">
    <path d="M 31.748031 30.047244 
L 37.550117 35.004321 
L 40.692913 37.389048 
L 43.271618 39.076036 
L 45.608569 40.343006 
L 47.703767 41.237031 
L 49.71838 41.861529 
L 51.652408 42.231955 
L 53.586437 42.37078 
L 55.439881 42.284009 
L 57.373909 41.965759 
L 59.307938 41.420968 
L 61.322551 40.623791 
L 63.498333 39.518461 
L 65.835284 38.078428 
L 68.494573 36.171363 
L 71.717954 33.572254 
L 77.197702 28.806184 
L 81.871604 24.861222 
L 84.933816 22.561373 
L 87.51252 20.896663 
L 89.768887 19.691703 
L 91.864085 18.812006 
L 93.878698 18.202245 
L 95.812726 17.846566 
L 97.746755 17.722792 
L 99.600199 17.824007 
L 101.534227 18.157074 
L 103.468256 18.716142 
L 105.482869 19.527326 
L 107.658651 20.646464 
L 109.995602 22.099433 
L 112.251969 23.71193 
L 112.251969 23.71193 
" clip-path="url(#pfa80fc100b)" style="fill: none; stroke: #e7298a; stroke-linecap: square"/>
   </g>
   <g id="line2d_7">
    <path d="M 31.748031 30.047244 
L 34.810243 24.256202 
L 36.421934 21.677041 
L 37.711286 20.003934 
L 38.839469 18.886218 
L 39.806484 18.214839 
L 40.692913 17.846664 
L 41.579343 17.722698 
L 42.385188 17.824103 
L 43.271618 18.169091 
L 44.158048 18.751835 
L 45.205647 19.730827 
L 46.33383 21.106489 
L 47.703767 23.16123 
L 49.396042 26.140835 
L 52.619423 32.40357 
L 54.875789 36.518552 
L 56.406895 38.865802 
L 57.696247 40.440168 
L 58.743846 41.398349 
L 59.71086 42.001813 
L 60.59729 42.305137 
L 61.48372 42.363104 
L 62.289565 42.201817 
L 63.175995 41.792306 
L 64.143009 41.077855 
L 65.190608 40.008131 
L 66.399376 38.430335 
L 67.849897 36.131708 
L 69.703341 32.739921 
L 74.860751 23.051912 
L 76.311272 20.90875 
L 77.52004 19.491772 
L 78.567639 18.579536 
L 79.534653 18.021404 
L 80.421082 17.761153 
L 81.307512 17.746823 
L 82.193942 17.978702 
L 83.080372 18.452147 
L 84.047386 19.232878 
L 85.094985 20.368549 
L 86.303753 22.012533 
L 87.754274 24.373311 
L 89.768887 28.125003 
L 94.120451 36.367925 
L 95.651557 38.741802 
L 96.940909 40.344394 
L 98.069093 41.391494 
L 99.036107 41.997528 
L 99.922537 42.3033 
L 100.808966 42.363751 
L 101.614812 42.204712 
L 102.501241 41.797618 
L 103.468256 41.085681 
L 104.515854 40.018467 
L 105.724622 38.443206 
L 107.175144 36.146981 
L 109.028588 32.757064 
L 112.251969 26.485058 
L 112.251969 26.485058 
" clip-path="url(#pfa80fc100b)" style="fill: none; stroke-dasharray: 1,1.65; stroke-dashoffset: 0; stroke: #e7298a"/>
   </g>
   <g id="patch_3">
    <path d="M 31.748031 44.220472 
L 31.748031 15.874016 
" style="fill: none; stroke: #000000; stroke-width: 0.8; stroke-linejoin: miter; stroke-linecap: square"/>
   </g>
   <g id="text_6">
    <!-- $\tau_{\mathrm{CNOT}}$ -->
    <g style="fill: #808080" transform="translate(47.843267 20.139338)">
     <text>
      <tspan x="0" y="-0.25" style="font-style: italic; font-size: 9px; font-family: 'FiraGO'; fill: #808080">τ</tspan>
      <tspan x="4.013992" y="1.175" style="font-size: 6.3px; font-family: 'FiraGO'; fill: #808080">C</tspan>
      <tspan x="7.541988" y="1.175" style="font-size: 6.3px; font-family: 'FiraGO'; fill: #808080">N</tspan>
      <tspan x="11.84489" y="1.175" style="font-size: 6.3px; font-family: 'FiraGO'; fill: #808080">O</tspan>
      <tspan x="16.204488" y="1.175" style="font-size: 6.3px; font-family: 'FiraGO'; fill: #808080">T</tspan>
     </text>
    </g>
   </g>
   <g id="legend_1">
    <g id="line2d_8">
     <path d="M 33.231969 5.074724 
L 37.731969 5.074724 
L 42.231969 5.074724 
" style="fill: none; stroke: #e7298a; stroke-linecap: square"/>
    </g>
    <g id="text_7">
     <!-- $\psi=0$ -->
     <g transform="translate(49.431969 8.224724)">
      <text>
       <tspan x="0" y="-0.890625" style="font-style: italic; font-size: 9px; font-family: 'FiraGO'">ψ</tspan>
       <tspan x="8.27999" y="-0.890625" style="font-size: 9px; font-family: 'FiraGO'">=</tspan>
       <tspan x="14.291989" y="-0.890625" style="font-size: 9px; font-family: 'FiraGO'">0</tspan>
      </text>
     </g>
    </g>
    <g id="line2d_9">
     <path d="M 77.781969 5.074724 
L 82.281969 5.074724 
L 86.781969 5.074724 
" style="fill: none; stroke-dasharray: 1,1.65; stroke-dashoffset: 0; stroke: #e7298a"/>
    </g>
    <g id="text_8">
     <!-- $\psi=1$ -->
     <g transform="translate(93.981969 8.224724)">
      <text>
       <tspan x="0" y="-0.984375" style="font-style: italic; font-size: 9px; font-family: 'FiraGO'">ψ</tspan>
       <tspan x="8.27999" y="-0.984375" style="font-size: 9px; font-family: 'FiraGO'">=</tspan>
       <tspan x="14.291989" y="-0.984375" style="font-size: 9px; font-family: 'FiraGO'">1</tspan>
      </text>
     </g>
    </g>
   </g>
  </g>
 </g>
 <defs>
  <clipPath id="pfa80fc100b">
   <rect x="31.748031" y="15.874016" width="80.503937" height="28.346457"/>
  </clipPath>
 </defs>
</svg>
